<svg width="1200" height="750" viewBox="0 0 1200 750" fill="none" xmlns="http://www.w3.org/2000/svg">
  <rect width="1200" height="750" rx="36" fill="#07111D"/>
  <rect x="50" y="50" width="1100" height="650" rx="28" fill="#0D1B2E" stroke="#1B2E49"/>
  <rect x="92" y="92" width="664" height="522" rx="24" fill="#101F35"/>
  <rect x="790" y="92" width="268" height="238" rx="24" fill="#12233B"/>
  <rect x="790" y="364" width="268" height="250" rx="24" fill="#12233B"/>
  <rect x="92" y="638" width="966" height="24" rx="12" fill="#0A1424"/>
  <rect x="132" y="132" width="584" height="442" rx="18" fill="#132744"/>
  <rect x="170" y="170" width="224" height="158" rx="16" fill="#0D1828"/>
  <rect x="424" y="170" width="252" height="158" rx="16" fill="#0D1828"/>
  <rect x="170" y="356" width="506" height="178" rx="16" fill="#0D1828"/>
  <circle cx="282" cy="248" r="50" fill="#4FD1C5" fill-opacity="0.12" stroke="#4FD1C5" stroke-width="6"/>
  <rect x="246" y="224" width="72" height="48" rx="12" fill="#4FD1C5"/>
  <circle cx="550" cy="248" r="50" fill="#64A4FF" fill-opacity="0.12" stroke="#64A4FF" stroke-width="6"/>
  <path d="M520 276L550 214L580 276H520Z" fill="#64A4FF"/>
  <rect x="204" y="392" width="440" height="14" rx="7" fill="#E4EEFF"/>
  <rect x="204" y="426" width="376" height="12" rx="6" fill="#7B92B7"/>
  <rect x="204" y="456" width="332" height="12" rx="6" fill="#7B92B7"/>
  <rect x="204" y="494" width="132" height="38" rx="12" fill="#F6AD55"/>
  <rect x="826" y="130" width="120" height="14" rx="7" fill="#E4EEFF"/>
  <rect x="826" y="162" width="164" height="12" rx="6" fill="#7B92B7"/>
  <circle cx="924" cy="246" r="54" fill="#F6AD55" fill-opacity="0.12" stroke="#F6AD55" stroke-width="6"/>
  <path d="M896 246H952" stroke="#F6AD55" stroke-width="8" stroke-linecap="round"/>
  <path d="M924 218V274" stroke="#F6AD55" stroke-width="8" stroke-linecap="round"/>
  <rect x="826" y="402" width="122" height="14" rx="7" fill="#E4EEFF"/>
  <rect x="826" y="434" width="176" height="12" rx="6" fill="#7B92B7"/>
  <rect x="826" y="464" width="156" height="12" rx="6" fill="#7B92B7"/>
  <rect x="826" y="504" width="86" height="86" rx="18" fill="#4FD1C5" fill-opacity="0.16" stroke="#4FD1C5"/>
  <rect x="932" y="504" width="86" height="86" rx="18" fill="#64A4FF" fill-opacity="0.16" stroke="#64A4FF"/>
</svg>
