<svg width="1200" height="750" viewBox="0 0 1200 750" fill="none" xmlns="http://www.w3.org/2000/svg">
  <rect width="1200" height="750" rx="36" fill="#09101C"/>
  <rect x="52" y="52" width="1096" height="646" rx="28" fill="#101B2D" stroke="#1D2B44"/>
  <rect x="92" y="92" width="1016" height="74" rx="18" fill="#13223A"/>
  <rect x="92" y="198" width="656" height="454" rx="20" fill="#0D1828"/>
  <rect x="780" y="198" width="328" height="214" rx="20" fill="#12233A"/>
  <rect x="780" y="438" width="328" height="214" rx="20" fill="#12233A"/>
  <rect x="126" y="124" width="206" height="14" rx="7" fill="#E4EEFF"/>
  <rect x="354" y="124" width="122" height="14" rx="7" fill="#7B92B7"/>
  <rect x="122" y="590" width="592" height="12" rx="6" fill="#1B3150"/>
  <rect x="122" y="546" width="592" height="12" rx="6" fill="#1B3150"/>
  <rect x="122" y="502" width="592" height="12" rx="6" fill="#1B3150"/>
  <rect x="122" y="458" width="592" height="12" rx="6" fill="#1B3150"/>
  <rect x="122" y="414" width="592" height="12" rx="6" fill="#1B3150"/>
  <path d="M144 554L228 522L312 470L396 492L480 400L564 354L648 290L696 234" stroke="#64A4FF" stroke-width="9" stroke-linecap="round" stroke-linejoin="round"/>
  <path d="M144 562L228 544L312 520L396 498L480 472L564 430L648 388L696 346" stroke="#4FD1C5" stroke-width="7" stroke-linecap="round" stroke-linejoin="round"/>
  <circle cx="480" cy="400" r="14" fill="#F6AD55"/>
  <rect x="814" y="236" width="162" height="18" rx="9" fill="#E4EEFF"/>
  <rect x="814" y="272" width="202" height="12" rx="6" fill="#7B92B7"/>
  <rect x="814" y="302" width="178" height="12" rx="6" fill="#7B92B7"/>
  <rect x="814" y="338" width="102" height="40" rx="12" fill="#F6AD55"/>
  <rect x="814" y="476" width="146" height="18" rx="9" fill="#E4EEFF"/>
  <rect x="814" y="512" width="232" height="12" rx="6" fill="#7B92B7"/>
  <rect x="814" y="542" width="198" height="12" rx="6" fill="#7B92B7"/>
  <rect x="814" y="578" width="118" height="40" rx="12" fill="#4FD1C5"/>
</svg>
